<?xml version="1.0" encoding="utf-8"?>
<!-- Generator: Adobe Illustrator 15.0.2, SVG Export Plug-In . SVG Version: 6.00 Build 0)  -->
<!DOCTYPE svg PUBLIC "-//W3C//DTD SVG 1.1//EN" "http://www.w3.org/Graphics/SVG/1.1/DTD/svg11.dtd">
<svg version="1.1" id="Layer_1" xmlns="http://www.w3.org/2000/svg" xmlns:xlink="http://www.w3.org/1999/xlink" x="0px" y="0px"
	 width="500px" height="500px" viewBox="0 0 500 500" enable-background="new 0 0 500 500" xml:space="preserve">
<g>
	<path fill="#FAAF40" d="M259.165,146.798c0,6.885-3.357,10.33-10.054,10.33c-2.906,0-5.27-0.988-7.095-2.96
		c-1.82-1.972-2.735-4.428-2.735-7.369V43.218c0-7.183,3.273-10.78,9.83-10.78c6.696,0,10.054,3.45,10.054,10.334V146.798z"/>
</g>
<g>
	<path fill="#FAAF40" d="M37.019,256.818c-6.89,0-10.334-3.353-10.334-10.051c0-2.907,0.988-5.271,2.96-7.091
		c1.972-1.825,4.429-2.74,7.375-2.74h103.57c7.188,0,10.785,3.279,10.785,9.831c0,6.698-3.445,10.051-10.334,10.051H37.019z"/>
</g>
<g>
	<path fill="#FAAF40" d="M108.216,126.036c-3.915-3.915-3.969-7.775-0.167-11.577c1.654-1.654,3.557-2.432,5.715-2.349
		c2.158,0.083,4.071,0.964,5.745,2.632l58.856,58.856c4.081,4.086,4.267,7.991,0.543,11.714c-3.807,3.802-7.668,3.749-11.582-0.167
		L108.216,126.036z"/>
</g>
<g>
	<path fill="#FAAF40" d="M360.269,256.818c-6.89,0-10.334-3.353-10.334-10.051c0-6.552,3.591-9.831,10.784-9.831h103.57
		c2.946,0,5.402,0.915,7.369,2.74c1.978,1.82,2.966,4.184,2.966,7.091c0,6.698-3.445,10.051-10.335,10.051H360.269z"/>
</g>
<g>
	<path fill="#FAAF40" d="M333.982,185.146c-3.915,3.915-7.78,3.969-11.587,0.167c-3.72-3.724-3.533-7.628,0.548-11.714
		l58.855-58.856c1.674-1.668,3.582-2.549,5.745-2.632c2.153-0.083,4.062,0.695,5.715,2.349c3.798,3.802,3.748,7.663-0.166,11.577
		L333.982,185.146z"/>
</g>
<circle fill="#D0D2D3" cx="274.04" cy="228.153" r="7.232"/>
<path fill="#231F20" d="M221.386,271.048c1.077,8.905,4.747,15.854,11.01,20.845c6.258,4.991,14.533,7.486,24.811,7.486
	c8.896,0,18.81-2.563,29.722-7.701c10.912-5.139,17.636-7.712,20.189-7.712c5.578,0,10.129,1.713,13.652,5.138
	c3.523,3.436,5.285,7.839,5.285,13.212c0,10.188-7.105,19.357-21.286,27.529c-14.19,8.172-30.886,12.253-50.058,12.253
	c-23.397,0-42.921-7.977-58.575-23.928c-15.658-15.942-23.487-35.966-23.487-60.041c0-24.162,7.604-44.332,22.822-60.48
	c15.218-16.148,34.185-24.222,56.889-24.222c21.925,0,40.274,7.584,55.052,22.753c14.768,15.179,22.166,33.715,22.166,55.637
	c0,7.144-1.614,12.135-4.844,14.973c-3.229,2.849-9.454,4.258-18.644,4.258H221.386z M220.799,240.073h62.538
	c-0.587-8.015-3.816-14.729-9.688-20.111c-5.872-5.373-12.869-8.074-20.992-8.074c-8.027,0-14.926,2.554-20.7,7.633
	C226.177,224.611,222.463,231.471,220.799,240.073z"/>
<path fill="#FAAF40" d="M51.486,431.198c2.415,2.339,5.889,3.514,10.417,3.514c3.247,0,6.041-0.812,8.382-2.437
	c2.339-1.625,3.772-3.343,4.304-5.153h14.156c-2.266,7.022-5.739,12.042-10.42,15.062s-10.344,4.531-16.987,4.531
	c-4.607,0-8.759-0.739-12.458-2.207c-3.699-1.473-6.833-3.572-9.399-6.287c-2.569-2.717-4.551-5.966-5.945-9.738
	c-1.399-3.777-2.097-7.932-2.097-12.458c0-4.38,0.717-8.456,2.153-12.233c1.434-3.772,3.472-7.041,6.117-9.796
	c2.64-2.755,5.793-4.928,9.456-6.513c3.66-1.586,7.719-2.379,12.174-2.379c4.984,0,9.324,0.965,13.023,2.888
	c3.699,1.928,6.738,4.512,9.116,7.761c2.381,3.244,4.096,6.948,5.155,11.098c1.055,4.154,1.431,8.494,1.133,13.025H47.522
	C47.747,425.082,49.068,428.859,51.486,431.198z M69.662,400.396c-1.925-2.114-4.852-3.171-8.776-3.171
	c-2.569,0-4.7,0.436-6.4,1.302c-1.698,0.866-3.056,1.942-4.076,3.225c-1.02,1.287-1.737,2.647-2.153,4.081
	c-0.416,1.434-0.661,2.716-0.734,3.851h26.159C72.928,405.602,71.587,402.51,69.662,400.396z"/>
<path fill="#FAAF40" d="M107.239,430.689c0.717,1.243,1.642,2.266,2.774,3.059c1.133,0.792,2.437,1.38,3.907,1.756
	c1.473,0.377,3.002,0.563,4.587,0.563c1.133,0,2.322-0.128,3.567-0.396c1.245-0.265,2.378-0.681,3.398-1.243
	c1.018-0.567,1.869-1.321,2.547-2.266c0.68-0.944,1.02-2.133,1.02-3.566c0-2.418-1.605-4.229-4.812-5.437
	c-3.21-1.209-7.685-2.418-13.422-3.626c-2.342-0.529-4.624-1.15-6.851-1.869c-2.229-0.715-4.211-1.659-5.945-2.829
	c-1.74-1.169-3.134-2.642-4.191-4.418c-1.059-1.771-1.585-3.944-1.585-6.513c0-3.773,0.736-6.87,2.209-9.288
	c1.471-2.412,3.413-4.32,5.831-5.72c2.417-1.395,5.135-2.378,8.154-2.941c3.019-0.567,6.117-0.852,9.288-0.852
	s6.246,0.304,9.231,0.906c2.98,0.606,5.642,1.624,7.983,3.058c2.339,1.434,4.284,3.343,5.833,5.721
	c1.546,2.378,2.471,5.377,2.774,9.003h-15.289c-0.228-3.092-1.397-5.191-3.511-6.287c-2.114-1.092-4.606-1.64-7.474-1.64
	c-0.905,0-1.889,0.054-2.946,0.171c-1.057,0.113-2.021,0.357-2.887,0.734c-0.869,0.377-1.605,0.925-2.209,1.645
	c-0.604,0.714-0.905,1.678-0.905,2.887c0,1.434,0.528,2.604,1.585,3.508c1.057,0.906,2.435,1.645,4.135,2.212
	c1.698,0.563,3.641,1.077,5.833,1.527c2.188,0.455,4.417,0.944,6.682,1.473c2.339,0.528,4.624,1.169,6.85,1.923
	c2.227,0.759,4.208,1.757,5.945,3.005c1.737,1.242,3.134,2.794,4.191,4.644c1.057,1.85,1.586,4.13,1.586,6.851
	c0,3.851-0.776,7.08-2.322,9.684c-1.549,2.603-3.567,4.697-6.058,6.283c-2.493,1.585-5.344,2.7-8.551,3.342
	c-3.21,0.641-6.477,0.964-9.796,0.964c-3.398,0-6.721-0.343-9.968-1.018c-3.247-0.681-6.133-1.815-8.664-3.401
	c-2.529-1.585-4.606-3.68-6.229-6.282c-1.625-2.608-2.51-5.872-2.662-9.797h15.289C106.163,427.954,106.522,429.441,107.239,430.689
	z"/>
<path fill="#FAAF40" d="M176.831,397.225c-2.566,0-4.72,0.582-6.454,1.752c-1.74,1.174-3.154,2.682-4.248,4.531
	c-1.096,1.85-1.869,3.89-2.322,6.116s-0.68,4.438-0.68,6.626c0,2.113,0.228,4.267,0.68,6.454c0.453,2.191,1.189,4.174,2.209,5.945
	c1.018,1.776,2.395,3.229,4.132,4.359c1.737,1.136,3.851,1.703,6.342,1.703c3.851,0,6.813-1.077,8.891-3.229
	c2.075-2.153,3.379-5.04,3.907-8.666h15.517c-1.06,7.78-4.079,13.706-9.06,17.782c-4.984,4.075-11.365,6.116-19.14,6.116
	c-4.382,0-8.402-0.739-12.062-2.207c-3.663-1.473-6.777-3.533-9.344-6.175c-2.569-2.643-4.57-5.794-6.001-9.454
	c-1.436-3.665-2.153-7.683-2.153-12.062c0-4.531,0.661-8.739,1.981-12.63c1.321-3.89,3.267-7.247,5.833-10.08
	c2.566-2.828,5.701-5.04,9.4-6.625c3.699-1.586,7.927-2.379,12.683-2.379c3.475,0,6.814,0.455,10.024,1.361
	c3.208,0.904,6.078,2.285,8.607,4.135s4.587,4.149,6.173,6.904c1.585,2.76,2.491,6.023,2.718,9.796h-15.742
	C187.665,400.581,183.701,397.225,176.831,397.225z"/>
<path fill="#FAAF40" d="M248.011,445.242v-8.152h-0.34c-2.038,3.396-4.683,5.853-7.927,7.359c-3.247,1.507-6.569,2.266-9.967,2.266
	c-4.304,0-7.834-0.567-10.589-1.698c-2.757-1.135-4.925-2.735-6.511-4.814c-1.585-2.075-2.701-4.604-3.342-7.59
	c-0.641-2.979-0.961-6.282-0.961-9.908v-36.015h16.082v33.068c0,4.835,0.753,8.441,2.265,10.819c1.51,2.378,4.189,3.567,8.04,3.567
	c4.377,0,7.55-1.302,9.512-3.91c1.965-2.604,2.946-6.89,2.946-12.854v-30.69H263.3v58.553H248.011z"/>
<path fill="#FAAF40" d="M297.919,397.225c-2.563,0-4.717,0.582-6.454,1.752c-1.737,1.174-3.156,2.682-4.247,4.531
	c-1.097,1.85-1.869,3.89-2.324,6.116c-0.45,2.227-0.676,4.438-0.676,6.626c0,2.113,0.226,4.267,0.676,6.454
	c0.455,2.191,1.193,4.174,2.212,5.945c1.018,1.776,2.397,3.229,4.13,4.359c1.741,1.136,3.855,1.703,6.341,1.703
	c3.856,0,6.816-1.077,8.896-3.229c2.074-2.153,3.376-5.04,3.904-8.666h15.517c-1.062,7.78-4.076,13.706-9.058,17.782
	c-4.985,4.075-11.366,6.116-19.142,6.116c-4.385,0-8.402-0.739-12.062-2.207c-3.665-1.473-6.776-3.533-9.341-6.175
	c-2.574-2.643-4.57-5.794-6.004-9.454c-1.434-3.665-2.153-7.683-2.153-12.062c0-4.531,0.661-8.739,1.981-12.63
	c1.321-3.89,3.27-7.247,5.833-10.08c2.564-2.828,5.701-5.04,9.4-6.625c3.699-1.586,7.927-2.379,12.683-2.379
	c3.475,0,6.816,0.455,10.026,1.361c3.205,0.904,6.077,2.285,8.603,4.135c2.535,1.85,4.59,4.149,6.176,6.904
	c1.585,2.76,2.49,6.023,2.721,9.796H309.81C308.753,400.581,304.789,397.225,297.919,397.225z"/>
<path fill="#FAAF40" d="M345.951,364.381v30.466h0.343c2.035-3.401,4.639-5.872,7.81-7.418c3.171-1.547,6.268-2.325,9.287-2.325
	c4.307,0,7.834,0.588,10.589,1.757c2.76,1.17,4.928,2.794,6.513,4.869c1.586,2.079,2.696,4.604,3.343,7.589
	c0.636,2.985,0.959,6.283,0.959,9.909v36.015h-16.079v-33.068c0-4.835-0.754-8.441-2.266-10.819
	c-1.513-2.378-4.193-3.567-8.04-3.567c-4.379,0-7.555,1.302-9.513,3.91c-1.967,2.603-2.945,6.89-2.945,12.854v30.69h-16.079v-80.861
	H345.951z"/>
<path fill="#FAAF40" d="M393.935,395.297c1.658-2.491,3.772-4.492,6.341-6.004c2.564-1.508,5.451-2.584,8.661-3.225
	c3.21-0.642,6.44-0.965,9.685-0.965c2.945,0,5.926,0.211,8.949,0.622c3.015,0.416,5.774,1.229,8.265,2.437
	c2.491,1.209,4.531,2.887,6.116,5.04c1.586,2.153,2.379,5.001,2.379,8.549v30.465c0,2.647,0.151,5.173,0.455,7.59
	c0.298,2.417,0.826,4.228,1.585,5.437h-16.31c-0.303-0.905-0.553-1.83-0.738-2.774s-0.323-1.909-0.392-2.888
	c-2.573,2.643-5.588,4.492-9.062,5.549c-3.474,1.058-7.021,1.586-10.647,1.586c-2.794,0-5.397-0.343-7.814-1.018
	c-2.417-0.681-4.526-1.737-6.342-3.171s-3.225-3.249-4.247-5.437c-1.018-2.192-1.532-4.795-1.532-7.814
	c0-3.322,0.588-6.062,1.762-8.211c1.165-2.153,2.677-3.87,4.526-5.157c1.85-1.282,3.964-2.241,6.347-2.888
	c2.378-0.641,4.771-1.149,7.188-1.526c2.412-0.377,4.79-0.68,7.134-0.905c2.34-0.229,4.419-0.567,6.229-1.022
	c1.811-0.45,3.249-1.11,4.306-1.981c1.058-0.866,1.547-2.129,1.469-3.793c0-1.736-0.284-3.111-0.847-4.135
	c-0.567-1.018-1.326-1.811-2.266-2.378c-0.944-0.567-2.036-0.944-3.283-1.13c-1.248-0.191-2.589-0.284-4.022-0.284
	c-3.171,0-5.662,0.681-7.473,2.036c-1.814,1.359-2.872,3.625-3.17,6.796h-16.084C391.326,400.924,392.271,397.787,393.935,395.297z
	 M425.701,418.006c-1.018,0.338-2.114,0.622-3.288,0.847c-1.17,0.23-2.397,0.416-3.68,0.567c-1.282,0.152-2.564,0.338-3.847,0.568
	c-1.213,0.225-2.397,0.528-3.571,0.905c-1.17,0.376-2.192,0.886-3.054,1.526c-0.871,0.646-1.57,1.458-2.1,2.437
	c-0.528,0.983-0.792,2.227-0.792,3.739c0,1.434,0.264,2.642,0.792,3.62c0.529,0.983,1.248,1.757,2.153,2.324
	c0.905,0.568,1.962,0.964,3.171,1.189s2.451,0.338,3.738,0.338c3.171,0,5.622-0.523,7.359-1.586c1.737-1.057,3.02-2.319,3.852-3.792
	c0.831-1.473,1.34-2.961,1.526-4.473c0.19-1.512,0.284-2.721,0.284-3.626v-6.004C427.57,417.194,426.719,417.664,425.701,418.006z"
	/>
<path fill="#404041" d="M470.093,427.803v17.439h-17.782v-17.439H470.093z"/>
</svg>
